Coordinates
version=1
nRows=30
nColumns=38
inDegrees=no

Units are S.I. units (second, meters, Newtons, ...)
If the header above contains a line with 'inDegrees', this indicates whether rotational values are in degrees (yes) or radians (no).

endheader
time	pelvis_tilt	pelvis_list	pelvis_rotation	pelvis_tx	pelvis_ty	pelvis_tz	hip_flexion_r	hip_adduction_r	hip_rotation_r	knee_angle_r	ankle_angle_r	subtalar_angle_r	mtp_angle_r	hip_flexion_l	hip_adduction_l	hip_rotation_l	knee_angle_l	ankle_angle_l	subtalar_angle_l	mtp_angle_l	lumbar_extension	lumbar_bending	lumbar_rotation	arm_flex_r	arm_add_r	arm_rot_r	elbow_flex_r	pro_sup_r	wrist_flex_r	wrist_dev_r	arm_flex_l	arm_add_l	arm_rot_l	elbow_flex_l	pro_sup_l	wrist_flex_l	wrist_dev_l
20	2.9448	1.26638	-1.24214	0.589683	-0.669754	0.957215	-0.0180894	-0.0234814	-0.0145001	0.811817	-0.288371	0	0	-0.311164	-0.0530895	-0.0914994	0.302441	-0.176202	0	0	-0.600762	0.0378517	0.162319	0.345022	-0.6456	-0.310913	1.61534	1.5708	0	0	0.931377	-0.178704	0.672142	1.32049	1.5708	0	0
20.01	2.93487	1.26867	-1.23495	0.589865	-0.666563	0.956853	-0.00501542	-0.0202805	-0.0105482	0.790271	-0.286239	0	0	-0.312538	-0.0542148	-0.0906886	0.301528	-0.174745	0	0	-0.597893	0.0398803	0.161947	0.349109	-0.648224	-0.301962	1.61471	1.5708	0	0	0.92931	-0.181576	0.668217	1.32254	1.5708	0	0
20.02	2.92659	1.27117	-1.22865	0.590041	-0.663295	0.956545	0.00617705	-0.0177167	-0.00726232	0.764932	-0.281772	0	0	-0.314281	-0.0551352	-0.0892293	0.299686	-0.172914	0	0	-0.595359	0.0400671	0.163709	0.348503	-0.647562	-0.30249	1.61588	1.5708	0	0	0.928339	-0.180525	0.665622	1.32269	1.5708	0	0
20.03	2.91967	1.27417	-1.22323	0.590246	-0.65999	0.956197	0.01675	-0.0160334	-0.00523622	0.737719	-0.276904	0	0	-0.315412	-0.055737	-0.0877143	0.298428	-0.170327	0	0	-0.592634	0.0400796	0.165171	0.34689	-0.646382	-0.3044	1.61877	1.5708	0	0	0.926899	-0.179452	0.662441	1.32319	1.5708	0	0
20.04	2.91499	1.27752	-1.21983	0.590454	-0.65664	0.955761	0.0267901	-0.0161709	-0.00442613	0.711351	-0.276775	0	0	-0.31629	-0.0555583	-0.0862499	0.297275	-0.167549	0	0	-0.589682	0.0397475	0.166194	0.34512	-0.645191	-0.306154	1.62217	1.5708	0	0	0.925111	-0.179022	0.658926	1.32434	1.5708	0	0
20.05	2.91047	1.28101	-1.21688	0.590716	-0.653119	0.955238	0.0358846	-0.0164199	-0.00350324	0.68313	-0.278155	0	0	-0.317387	-0.0553191	-0.0861787	0.295892	-0.164578	0	0	-0.586076	0.0393307	0.166825	0.343662	-0.643879	-0.3065	1.62545	1.5708	0	0	0.922292	-0.179718	0.654765	1.32658	1.5708	0	0
20.06	2.90775	1.28423	-1.21528	0.590963	-0.649594	0.954756	0.0436051	-0.0172124	-0.00361972	0.65347	-0.280444	0	0	-0.318997	-0.0547852	-0.0858868	0.294344	-0.162263	0	0	-0.583036	0.038599	0.166645	0.342429	-0.642494	-0.306461	1.62886	1.5708	0	0	0.919277	-0.179613	0.64988	1.3283	1.5708	0	0
20.07	2.90525	1.28706	-1.21358	0.591218	-0.646059	0.954282	0.0502615	-0.0182611	-0.0051087	0.622891	-0.285306	0	0	-0.320781	-0.0544901	-0.0855508	0.293129	-0.160441	0	0	-0.580312	0.0382096	0.166363	0.341113	-0.641559	-0.306154	1.63257	1.5708	0	0	0.916301	-0.17959	0.64484	1.33	1.5708	0	0
20.08	2.90241	1.2893	-1.2107	0.591398	-0.642424	0.953842	0.0549605	-0.0191146	-0.00804697	0.590616	-0.292685	0	0	-0.323004	-0.0549362	-0.0849239	0.292355	-0.157866	0	0	-0.577875	0.0388629	0.165576	0.339901	-0.640823	-0.305444	1.63658	1.5708	0	0	0.912762	-0.179992	0.63924	1.33226	1.5708	0	0
20.09	2.90183	1.29122	-1.20966	0.591592	-0.638629	0.953352	0.0582952	-0.0196661	-0.0112987	0.55933	-0.299804	0	0	-0.326227	-0.0550721	-0.0839685	0.290812	-0.155786	0	0	-0.575507	0.039031	0.164561	0.338039	-0.639986	-0.305061	1.64049	1.5708	0	0	0.909763	-0.180149	0.634802	1.33391	1.5708	0	0
20.1	2.90091	1.29224	-1.20786	0.591764	-0.634849	0.953006	0.0590989	-0.0203023	-0.0171789	0.525704	-0.309331	0	0	-0.330533	-0.0557058	-0.0825285	0.288447	-0.154701	0	0	-0.574127	0.0398644	0.163581	0.336076	-0.639835	-0.304416	1.64478	1.5708	0	0	0.907128	-0.180726	0.6309	1.33579	1.5708	0	0
20.11	2.90241	1.29228	-1.20758	0.591864	-0.631101	0.952729	0.0585857	-0.021178	-0.0211199	0.493557	-0.318856	0	0	-0.335975	-0.0562498	-0.0803387	0.286007	-0.153869	0	0	-0.573913	0.0408927	0.162092	0.334062	-0.639933	-0.303998	1.64918	1.5708	0	0	0.905227	-0.181502	0.627751	1.33743	1.5708	0	0
20.12	2.90505	1.29164	-1.20781	0.591915	-0.627299	0.952526	0.0564269	-0.0226592	-0.0239135	0.460737	-0.326153	0	0	-0.342108	-0.0568431	-0.0774752	0.283684	-0.153692	0	0	-0.574243	0.0422374	0.160433	0.331538	-0.640151	-0.304085	1.65369	1.5708	0	0	0.903888	-0.182023	0.625494	1.33824	1.5708	0	0
20.13	2.90876	1.29056	-1.20867	0.592023	-0.623315	0.952296	0.0524208	-0.0236845	-0.0274906	0.428144	-0.331102	0	0	-0.348846	-0.0577264	-0.0751979	0.281811	-0.153087	0	0	-0.574585	0.043592	0.158705	0.327915	-0.640233	-0.304781	1.65867	1.5708	0	0	0.902834	-0.182748	0.624211	1.33866	1.5708	0	0
20.14	2.91307	1.28929	-1.21014	0.592211	-0.619188	0.952036	0.0475059	-0.0241675	-0.0314307	0.396771	-0.333889	0	0	-0.355995	-0.0588434	-0.0744771	0.280152	-0.151511	0	0	-0.574873	0.0449234	0.157106	0.323582	-0.640091	-0.305908	1.66426	1.5708	0	0	0.901747	-0.184188	0.623449	1.33938	1.5708	0	0
20.15	2.91764	1.28779	-1.21184	0.592415	-0.615016	0.951777	0.0426107	-0.0249098	-0.034236	0.367102	-0.33675	0	0	-0.363721	-0.0599832	-0.0739124	0.277574	-0.149469	0	0	-0.575384	0.0464966	0.155741	0.31902	-0.639891	-0.307466	1.67028	1.5708	0	0	0.900557	-0.186188	0.622754	1.34076	1.5708	0	0
20.16	2.92178	1.28621	-1.21336	0.592699	-0.610738	0.951476	0.0372546	-0.0249323	-0.0351246	0.33885	-0.338557	0	0	-0.371942	-0.0612985	-0.073227	0.274445	-0.147253	0	0	-0.575357	0.0478586	0.154954	0.313808	-0.639721	-0.309141	1.6758	1.5708	0	0	0.899355	-0.18716	0.622299	1.34103	1.5708	0	0
20.17	2.92685	1.28471	-1.21602	0.593102	-0.6064	0.951108	0.0321973	-0.0246767	-0.034337	0.313928	-0.338688	0	0	-0.380079	-0.0624002	-0.0722505	0.272042	-0.145339	0	0	-0.575003	0.0488242	0.154286	0.308379	-0.639489	-0.310851	1.68153	1.5708	0	0	0.899151	-0.188481	0.623305	1.34052	1.5708	0	0
20.18	2.93364	1.28292	-1.22022	0.593545	-0.602024	0.95074	0.0268414	-0.0249873	-0.0332371	0.292283	-0.338487	0	0	-0.388413	-0.0631592	-0.0708804	0.270366	-0.143671	0	0	-0.574945	0.0495156	0.153525	0.302806	-0.639204	-0.312816	1.68728	1.5708	0	0	0.898954	-0.190221	0.624653	1.34038	1.5708	0	0
20.19	2.94056	1.28166	-1.22453	0.594124	-0.597543	0.950268	0.0225318	-0.0254498	-0.0317196	0.275325	-0.337427	0	0	-0.396087	-0.0639196	-0.0697087	0.268887	-0.142254	0	0	-0.574038	0.0497772	0.152646	0.296928	-0.638353	-0.314782	1.69303	1.5708	0	0	0.89817	-0.192463	0.625758	1.34081	1.5708	0	0
20.2	2.94736	1.28021	-1.22828	0.594709	-0.59298	0.949771	0.0179654	-0.0260382	-0.0310054	0.261272	-0.336337	0	0	-0.403661	-0.0650422	-0.0689025	0.267758	-0.140778	0	0	-0.573154	0.0504463	0.151457	0.290861	-0.637323	-0.316741	1.69933	1.5708	0	0	0.89706	-0.193518	0.62654	1.34022	1.5708	0	0
20.21	2.95575	1.27816	-1.23284	0.595226	-0.58836	0.949333	0.0129034	-0.0275213	-0.0324823	0.251433	-0.335497	0	0	-0.411431	-0.0661713	-0.0668887	0.267651	-0.139245	0	0	-0.572844	0.0514996	0.149768	0.284438	-0.63677	-0.318689	1.70613	1.5708	0	0	0.895985	-0.193831	0.627244	1.33871	1.5708	0	0
20.22	2.9651	1.27589	-1.2382	0.595755	-0.583659	0.948951	0.00731875	-0.0292378	-0.0352032	0.244193	-0.334649	0	0	-0.419271	-0.0672635	-0.0648252	0.267855	-0.137942	0	0	-0.572474	0.0524941	0.148077	0.277559	-0.636156	-0.320737	1.71303	1.5708	0	0	0.894615	-0.194976	0.628102	1.3379	1.5708	0	0
20.23	2.97413	1.27425	-1.24339	0.596417	-0.578894	0.948529	0.00277971	-0.0307868	-0.0382433	0.240368	-0.333695	0	0	-0.426048	-0.0685143	-0.0636811	0.269082	-0.136861	0	0	-0.571257	0.0530539	0.146455	0.270294	-0.635108	-0.322734	1.71988	1.5708	0	0	0.892946	-0.197138	0.628934	1.33806	1.5708	0	0
20.24	2.98457	1.27236	-1.24948	0.597127	-0.574044	0.948064	-0.00109156	-0.0320522	-0.042488	0.242044	-0.331509	0	0	-0.433011	-0.0699395	-0.0629201	0.270865	-0.135941	0	0	-0.570325	0.0533757	0.144357	0.262629	-0.633803	-0.324904	1.72721	1.5708	0	0	0.891255	-0.199242	0.629649	1.3383	1.5708	0	0
20.25	2.99344	1.27169	-1.25425	0.597963	-0.569164	0.94753	-0.00450798	-0.0336683	-0.0444077	0.243972	-0.330244	0	0	-0.438096	-0.071498	-0.0624904	0.273468	-0.135777	0	0	-0.567945	0.0537298	0.142392	0.254868	-0.632038	-0.326691	1.73442	1.5708	0	0	0.889036	-0.20168	0.629902	1.3391	1.5708	0	0
20.26	3.00407	1.27095	-1.25996	0.5988	-0.564062	0.946947	-0.0081112	-0.0352553	-0.0495145	0.249372	-0.329475	0	0	-0.443241	-0.0729915	-0.0615202	0.27661	-0.134562	0	0	-0.565339	0.0540763	0.139974	0.245411	-0.629975	-0.329526	1.74306	1.5708	0	0	0.886434	-0.204538	0.630654	1.34063	1.5708	0	0
20.27	3.01632	1.27047	-1.26701	0.599733	-0.558813	0.946302	-0.011129	-0.0371483	-0.0548874	0.258988	-0.329656	0	0	-0.448269	-0.0742978	-0.0597943	0.280062	-0.133233	0	0	-0.562077	0.0538094	0.13706	0.235521	-0.627657	-0.332106	1.75152	1.5708	0	0	0.883524	-0.207781	0.631732	1.34211	1.5708	0	0
20.28	3.02829	1.27025	-1.27399	0.600812	-0.553492	0.945632	-0.0135788	-0.0387368	-0.0600283	0.271347	-0.32907	0	0	-0.452766	-0.0757079	-0.0568873	0.284122	-0.131574	0	0	-0.558473	0.0531236	0.134273	0.225535	-0.625235	-0.33433	1.75984	1.5708	0	0	0.880168	-0.210302	0.632591	1.34278	1.5708	0	0
20.29	3.03726	1.27109	-1.27891	0.602083	-0.548079	0.944933	-0.0138449	-0.0394586	-0.0641374	0.285961	-0.326024	0	0	-0.455581	-0.0775553	-0.0536054	0.289433	-0.128883	0	0	-0.553696	0.0520216	0.131374	0.216395	-0.622658	-0.334549	1.7675	1.5708	0	0	0.875608	-0.213986	0.632507	1.34469	1.5708	0	0
